<svg xmlns="http://www.w3.org/2000/svg" width="32" height="32" viewBox="0 0 32 32">
    <defs>
        <filter id="0fwsh2mm5a">
            <feColorMatrix in="SourceGraphic" values="0 0 0 0 1.000000 0 0 0 0 1.000000 0 0 0 0 1.000000 0 0 0 1.000000 0"/>
        </filter>
    </defs>
    <g fill="none" fill-rule="evenodd">
        <g>
            <g>
                <g filter="url(#0fwsh2mm5a)" transform="translate(-186 -2638) translate(0 2359) translate(178 271)">
                    <g>
                        <g fill="#000" fill-rule="nonzero">
                            <path d="M8.173.219c.265.265.29.68.073.972l-.073.084L2.55 6.899h20.704c.413 0 .747.334.747.747 0 .38-.285.695-.653.74l-.094.006H2.546l5.627 5.626c.265.265.29.68.073.972l-.073.084c-.265.265-.68.29-.972.072l-.084-.072L.22 8.175c-.265-.265-.29-.68-.073-.972L.22 7.12 7.117.219c.292-.292.765-.292 1.056 0z" transform="rotate(90 16 24) rotate(-90 18 10)"/>
                        </g>
                    </g>
                </g>
            </g>
        </g>
    </g>
</svg>
