<svg xmlns="http://www.w3.org/2000/svg" width="119" height="125" viewBox="0 0 119 125">
    <defs>
        <filter id="5rd5fe9f3a" width="120.8%" height="159%" x="-10.4%" y="-29.5%" filterUnits="objectBoundingBox">
            <feOffset dy="4" in="SourceAlpha" result="shadowOffsetOuter1"/>
            <feGaussianBlur in="shadowOffsetOuter1" result="shadowBlurOuter1" stdDeviation="10"/>
            <feColorMatrix in="shadowBlurOuter1" result="shadowMatrixOuter1" values="0 0 0 0 0 0 0 0 0 0 0 0 0 0 0 0 0 0 0.3 0"/>
            <feMerge>
                <feMergeNode in="shadowMatrixOuter1"/>
                <feMergeNode in="SourceGraphic"/>
            </feMerge>
        </filter>
    </defs>
    <g fill="none" fill-rule="evenodd">
        <g fill="#FFF">
            <g filter="url(#5rd5fe9f3a)" transform="translate(-717 -268) translate(661 252)">
                <g>
                    <g>
                        <path fill-rule="nonzero" d="M12.234.001c-.298.027-.578.157-.793.367L.386 11.439c-.25.247-.389.585-.386.936V45.59c0 .72.582 1.303 1.3 1.303h24.712c.47.007.906-.24 1.143-.646s.237-.908 0-1.314-.673-.652-1.143-.645H2.602v-30.61h9.754c.718 0 1.3-.582 1.3-1.302V2.606h21.46v29.958c-.006.47.24.907.646 1.144.405.236.906.236 1.311 0 .405-.237.652-.674.645-1.144V1.304c0-.72-.582-1.302-1.3-1.303H12.233zm-1.179 4.437v6.635H4.43l6.625-6.635zm31.171 31.71c-.67.075-1.173.649-1.158 1.324v13.574l-4.898-5.352c-.263-.292-.644-.45-1.036-.428-.507.027-.952.347-1.14.82-.187.471-.084 1.01.266 1.378l7.153 7.815c.246.267.593.419.955.419.363 0 .71-.152.955-.419l7.154-7.815c.484-.529.45-1.35-.076-1.837-.525-.487-1.345-.457-1.834.067l-4.898 5.352V37.472c.008-.375-.146-.736-.422-.99-.277-.253-.649-.374-1.021-.333z" transform="translate(90 50) translate(0 .415)"/>
                        <text font-family="SpaceGrotesk-Bold, Space Grotesk" font-size="14" font-weight="bold" transform="translate(90 50) translate(0 .415)">
                            <tspan x="7" y="30.585">PDF</tspan>
                        </text>
                    </g>
                </g>
            </g>
        </g>
    </g>
</svg>
